<?xml version="1.0" encoding="UTF-8"?>
<svg width="45px" height="21px" viewBox="0 0 45 21" version="1.1" xmlns="http://www.w3.org/2000/svg" xmlns:xlink="http://www.w3.org/1999/xlink">
    <title>drop模式</title>
    <defs>
        <linearGradient x1="2.60208521e-14%" y1="50%" x2="100%" y2="50%" id="linearGradient-1">
            <stop stop-color="#FF0066" offset="0%"></stop>
            <stop stop-color="#FF0036" offset="100%"></stop>
        </linearGradient>
    </defs>
    <g id="页面-1" stroke="none" stroke-width="1" fill="none" fill-rule="evenodd">
        <g id="首页" transform="translate(-14, -435)">
            <g id="编组-8" transform="translate(14, 435)">
                <path d="M4,0 L45,0 L45,0 L45,9 C45,15.627417 39.627417,21 33,21 L0,21 L0,21 L0,4 C-2.705415e-16,1.790861 1.790861,2.705415e-16 4,0 Z" id="矩形" fill="url(#linearGradient-1)"></path>
                <path d="M31,21 C37.627417,21 43,15.627417 43,9 L43,0 L45,0 L45,9 C45,15.627417 39.627417,21 33,21 Z" id="形状结合" fill="#03DA9F"></path>
                <path d="M11.4475342,5 L7.58653418,5 L6,14.1 L9.783,14.1 C12.656,14.1 14.9713727,12.228 15.4382671,9.55 C15.9074279,6.859 14.2685342,5 11.4475342,5 Z M10.2144415,12.371 L8.35544149,12.371 L9.33909269,6.729 L11.1070927,6.729 C12.6670927,6.729 13.6353762,7.886 13.3430006,9.563 C13.0528915,11.227 11.7354415,12.371 10.2144415,12.371 Z M18.9595165,8.367 L19.1793648,7.106 L17.1773648,7.106 L15.958,14.1 L17.96,14.1 L18.5470176,10.733 C18.7532671,9.55 19.7709893,8.783 21.1783245,8.913 L21.5069637,7.028 C20.4646972,7.041 19.590104,7.509 18.9595165,8.367 Z M25.7556972,7.041 C23.5066972,7.041 21.7516512,8.458 21.3776824,10.603 C21.0059801,12.735 22.2624011,14.178 24.5114011,14.178 C26.7474011,14.178 28.5069801,12.735 28.8786824,10.603 C29.2526512,8.458 27.9916972,7.041 25.7556972,7.041 Z M25.4655881,8.705 C26.4925881,8.705 27.0715995,9.485 26.8721495,10.629 C26.6726995,11.773 25.8217108,12.553 24.7947108,12.553 C23.7547108,12.553 23.1756995,11.773 23.3751495,10.629 C23.5745995,9.485 24.4255881,8.705 25.4655881,8.705 Z M35.1026972,7.041 C34.1536972,7.041 33.3187029,7.431 32.7023131,8.133 L32.8813648,7.106 L30.8793648,7.106 L29.2203034,16.622 L31.2223034,16.622 L31.8387852,13.086 C32.2233955,13.788 32.9224011,14.178 33.8974011,14.178 C35.8604011,14.178 37.3944472,12.761 37.763883,10.642 C38.1401182,8.484 37.0656972,7.041 35.1026972,7.041 Z M33.6805102,12.514 C32.6535102,12.514 32.0744989,11.734 32.2762154,10.577 C32.4733989,9.446 33.326654,8.653 34.353654,8.653 C35.380654,8.653 35.9421324,9.459 35.7472154,10.577 C35.5477654,11.721 34.7075102,12.514 33.6805102,12.514 Z" id="形状结合" fill="#FFFFFF" fill-rule="nonzero"></path>
            </g>
        </g>
    </g>
</svg>