<?xml version="1.0" encoding="UTF-8"?>
<svg width="60px" height="21px" viewBox="0 0 60 21" version="1.1" xmlns="http://www.w3.org/2000/svg" xmlns:xlink="http://www.w3.org/1999/xlink">
    <title>normal模式</title>
    <defs>
        <linearGradient x1="0.0983391608%" y1="49.9016608%" x2="99.9016608%" y2="49.9016608%" id="linearGradient-1">
            <stop stop-color="#84EA9B" offset="0%"></stop>
            <stop stop-color="#05D099" offset="100%"></stop>
        </linearGradient>
    </defs>
    <g id="页面-1" stroke="none" stroke-width="1" fill="none" fill-rule="evenodd">
        <g id="首页" transform="translate(-194, -435)">
            <g id="normal模式" transform="translate(194, 435)">
                <path d="M4,0 L58,0 L58,0 L58,9 C58,15.627417 52.627417,21 46,21 L0,21 L0,21 L0,4 C-2.705415e-16,1.790861 1.790861,2.705415e-16 4,0 Z" id="矩形" fill="url(#linearGradient-1)"></path>
                <path d="M46,21 C52.627417,21 58,15.627417 58,9 L58,0 L60,0 L60,9 C60,15.627417 54.627417,21 48,21 Z" id="形状结合" fill="#FF0037"></path>
                <path d="M5.58653418,6.546 L4,15.646 L5.963,15.646 L6.98064836,9.809 L10.37,15.646 L12.242,15.646 L13.8285342,6.546 L11.8785342,6.546 L10.8586194,12.396 L7.45853418,6.546 L5.58653418,6.546 Z M18.5946972,8.587 C16.3456972,8.587 14.5906512,10.004 14.2166824,12.149 C13.8449801,14.281 15.1014011,15.724 17.3504011,15.724 C19.5864011,15.724 21.3459801,14.281 21.7176824,12.149 C22.0916512,10.004 20.8306972,8.587 18.5946972,8.587 Z M18.3045881,10.251 C19.3315881,10.251 19.9105995,11.031 19.7111495,12.175 C19.5116995,13.319 18.6607108,14.099 17.6337108,14.099 C16.5937108,14.099 16.0146995,13.319 16.2141495,12.175 C16.4135995,11.031 17.2645881,10.251 18.3045881,10.251 Z M25.4355165,9.913 L25.6553648,8.652 L23.6533648,8.652 L22.434,15.646 L24.436,15.646 L25.0230176,12.279 C25.2292671,11.096 26.2469893,10.329 27.6543245,10.459 L27.9829637,8.574 C26.9406972,8.587 26.066104,9.055 25.4355165,9.913 Z M38.3309637,8.574 C37.1456972,8.587 36.1710381,9.107 35.5279205,10.186 C35.3667057,9.172 34.6259637,8.574 33.4429637,8.574 C32.3876972,8.587 31.49617,9.003 30.8525824,9.861 L31.0633648,8.652 L29.0613648,8.652 L27.842,15.646 L29.844,15.646 L30.446883,12.188 C30.6236682,11.174 31.3401239,10.42 32.3173904,10.407 C33.1363904,10.407 33.5634648,10.94 33.4070779,11.837 L32.743,15.646 L34.732,15.646 L35.334883,12.188 C35.5116682,11.174 36.2281239,10.42 37.1923904,10.407 C38.0243904,10.407 38.4514648,10.94 38.2950779,11.837 L37.631,15.646 L39.62,15.646 L40.3860694,11.252 C40.6716455,9.614 39.8779637,8.574 38.3309637,8.574 Z M47.368,15.646 L48.1505336,11.083 C48.4117773,9.51 47.4959637,8.574 45.6239637,8.574 C44.4019637,8.574 43.4551012,8.86 42.3244421,9.38 L42.7081955,10.758 C43.5064563,10.355 44.2707199,10.147 44.8947199,10.147 C45.8567199,10.147 46.2759262,10.576 46.146737,11.317 L46.1240722,11.447 L44.2000722,11.447 C42.4818057,11.46 41.3968171,12.24 41.1679029,13.553 C40.9457881,14.827 41.6971347,15.737 43.1921347,15.737 C44.1671347,15.737 44.9777966,15.412 45.5477881,14.827 L45.405,15.646 L47.368,15.646 Z M44.0004472,14.307 C43.3244472,14.307 42.9696421,13.956 43.0625676,13.423 C43.1600262,12.864 43.5778228,12.63 44.3448228,12.63 L45.9178228,12.63 L45.8090318,13.254 C45.5877739,13.852 44.8454472,14.307 44.0004472,14.307 Z M50.8437262,6 L49.162,15.646 L51.164,15.646 L52.8457262,6 L50.8437262,6 Z" id="形状结合" fill="#FFFFFF" fill-rule="nonzero"></path>
            </g>
        </g>
    </g>
</svg>