<?xml version="1.0" encoding="UTF-8"?>
<svg width="17.2px" height="20.2px" viewBox="0 0 17.2 20.2" version="1.1" xmlns="http://www.w3.org/2000/svg" xmlns:xlink="http://www.w3.org/1999/xlink">
    <title>夺宝记录@2x</title>
    <defs>
        <rect id="path-1" x="0" y="0" width="22" height="22"></rect>
    </defs>
    <g id="页面-1" stroke="none" stroke-width="1" fill="none" fill-rule="evenodd">
        <g id="个人中心" transform="translate(-16.4, -416.4)">
            <g id="夺宝记录" transform="translate(14, 415)">
                <mask id="mask-2" fill="white">
                    <use xlink:href="#path-1"></use>
                </mask>
                <g id="蒙版"></g>
                <g mask="url(#mask-2)">
                    <g transform="translate(3, 2)">
                        <g id="编组" stroke="none" stroke-width="1" fill-rule="evenodd" stroke-linejoin="round">
                            <path d="M12.52495,1.425 L15,1.425 C15.5523,1.425 16,1.85032925 16,2.375 L16,18.05 C16,18.574685 15.5523,19 15,19 L1,19 C0.447715,19 0,18.574685 0,18.05 L0,2.375 C0,1.85032925 0.447715,1.425 1,1.425 L4,1.425 L4.5,1.425 L4.5,2.85 L11.5,2.85 L11.5,1.425 L12.52495,1.425 Z" id="路径" stroke="#000000" stroke-width="1.2"></path>
                            <rect id="矩形" stroke="#000000" stroke-width="1.2" stroke-linecap="round" x="4.5" y="0" width="7" height="2.85"></rect>
                        </g>
                        <path d="M11.7425158,8.79694652 L11.5604545,8.79694652 L10.4680867,9.16872856 C10.2253383,7.9294551 9.19365762,7 7.85854144,7 C6.58411235,7 5.49174457,7.9294551 5.24899617,9.16872856 C4.88487357,9.10676488 4.52075098,8.98283754 4.15662838,8.79694652 L3.97456708,8.79694652 C3.67113159,8.79694652 2.9428864,8.92087387 3.0035735,9.97425631 C3.0035735,9.97425631 3.06426059,12.8865489 5.43105747,14.0638587 C6.34136395,14.3117134 7.13029625,14.4356408 7.85854144,14.4356408 C9.25434472,14.4356408 10.2253383,14.0638587 10.2253383,14.0638587 C12.5921352,12.9485126 12.6528223,9.97425631 12.6528223,9.97425631 C12.7741965,8.92087387 12.0459513,8.79694652 11.7425158,8.79694652 Z" id="形状" stroke="#000000" stroke-width="1.2" fill-rule="nonzero"></path>
                    </g>
                </g>
            </g>
        </g>
    </g>
</svg>