<?xml version="1.0" encoding="UTF-8"?>
<svg width="18.6px" height="18.6px" viewBox="0 0 18.6 18.6" version="1.1" xmlns="http://www.w3.org/2000/svg" xmlns:xlink="http://www.w3.org/1999/xlink">
    <title>资产详情@2x</title>
    <defs>
        <rect id="path-1" x="0" y="0" width="22" height="22"></rect>
    </defs>
    <g id="页面-1" stroke="none" stroke-width="1" fill="none" fill-rule="evenodd">
        <g id="个人中心" transform="translate(-15.4, -371)">
            <g id="资产详情" transform="translate(14, 369)">
                <mask id="mask-2" fill="white">
                    <use xlink:href="#path-1"></use>
                </mask>
                <g id="蒙版"></g>
                <g mask="url(#mask-2)" stroke="#000000" stroke-width="1.2">
                    <g transform="translate(2, 2)">
                        <path d="M8.57142857,0.857142857 C7.51676734,0.857142857 6.506595,1.04762249 5.57343693,1.3960564 C2.3180952,2.61157547 0,5.74936338 0,9.42857143 C0,14.1624407 3.83755929,18 8.57142857,18 C12.0578139,18 15.0580424,15.9185147 16.3971913,12.9304665 C16.87636,11.8612955 17.1428571,10.6760553 17.1428571,9.42857143" id="路径" stroke-linecap="round" stroke-linejoin="round"></path>
                        <path d="M10.0285714,0.622241205 C11.9906574,0.768250461 13.7549496,1.62450433 15.0652226,2.93477737 C16.3754887,4.24504349 17.2317405,6.00932398 17.3777565,7.97139746 L10.0285714,7.97103 Z" id="形状结合"></path>
                    </g>
                </g>
            </g>
        </g>
    </g>
</svg>