<?xml version="1.0" encoding="UTF-8"?>
<svg width="21px" height="20.55px" viewBox="0 0 21 20.55" version="1.1" xmlns="http://www.w3.org/2000/svg" xmlns:xlink="http://www.w3.org/1999/xlink">
    <title>中奖记录@2x</title>
    <defs>
        <rect id="path-1" x="0" y="0" width="22" height="22"></rect>
    </defs>
    <g id="页面-1" stroke="none" stroke-width="1" fill="none" fill-rule="evenodd">
        <g id="个人中心" transform="translate(-15, -461.4)">
            <g id="中奖记录" transform="translate(14, 461)">
                <mask id="mask-2" fill="white">
                    <use xlink:href="#path-1"></use>
                </mask>
                <g id="蒙版"></g>
                <g mask="url(#mask-2)" stroke="#000000" stroke-width="1.2">
                    <g transform="translate(1, 1)">
                        <line x1="10.5" y1="18.9" x2="10.5" y2="8.4" id="路径" stroke-linecap="round" stroke-linejoin="round"></line>
                        <polyline id="路径" stroke-linecap="round" stroke-linejoin="round" points="6.3 0 10.5 4.2 14.7 0"></polyline>
                        <rect id="矩形" x="0.6" y="4.8" width="19.8" height="3" rx="1.5"></rect>
                        <path d="M18.3,7.95 L18.3,17.95 C18.3,18.3365993 18.1432997,18.6865993 17.8899495,18.9399495 C17.6365993,19.1932997 17.2865993,19.35 16.9,19.35 L4.1,19.35 C3.71340068,19.35 3.36340068,19.1932997 3.11005051,18.9399495 C2.85670034,18.6865993 2.7,18.3365993 2.7,17.95 L2.7,7.95 L18.3,7.95 Z" id="矩形"></path>
                    </g>
                </g>
            </g>
        </g>
    </g>
</svg>