<?xml version="1.0" encoding="UTF-8"?>
<svg width="22px" height="24px" viewBox="0 0 22 24" version="1.1" xmlns="http://www.w3.org/2000/svg" xmlns:xlink="http://www.w3.org/1999/xlink">
    <title>Profile_default@2x</title>
    <defs>
        <rect id="path-1" x="0" y="0" width="26" height="26"></rect>
    </defs>
    <g id="页面-1" stroke="none" stroke-width="1" fill="none" fill-rule="evenodd">
        <g id="首页" transform="translate(-302, -751)">
            <g id="底部导航" transform="translate(0, 736)">
                <g id="Profile" transform="translate(250, 0)">
                    <g id="Profile_default" transform="translate(50, 14)">
                        <mask id="mask-2" fill="white">
                            <use xlink:href="#path-1"></use>
                        </mask>
                        <g id="蒙版"></g>
                        <g id="编组-14" mask="url(#mask-2)" stroke="#333333" stroke-width="1.5">
                            <g transform="translate(2, 1)">
                                <path d="M11,0.75 C13.8304593,0.75 16.3929593,1.89727033 18.2478445,3.75215549 C20.1027297,5.60704066 21.25,8.16954066 21.25,11 C21.25,14.0161625 19.9472041,16.7280064 17.8737618,18.6036615 L16.9584573,19.4316545 L18.1150052,19.8626436 C18.4513507,19.9879833 18.7383216,20.2145683 18.9397389,20.5049666 C19.1355565,20.7872915 19.25,21.1303105 19.25,21.5 C19.25,21.9832492 19.0541246,22.4207492 18.7374369,22.7374369 C18.4207492,23.0541246 17.9832492,23.25 17.5,23.25 L4.5,23.25 C4.01675084,23.25 3.57925084,23.0541246 3.26256313,22.7374369 C2.94587542,22.4207492 2.75,21.9832492 2.75,21.5 C2.75,21.130288 2.86446699,20.7872589 3.06028827,20.5047504 C3.26199686,20.2137483 3.5494625,19.9865553 3.88637591,19.8603847 L5.04079078,19.4280683 L4.12620262,18.6015698 C2.05263349,16.7277191 0.75,14.0159827 0.75,11 C0.75,8.16954066 1.89727033,5.60704066 3.75215549,3.75215549 C5.60704066,1.89727033 8.16954066,0.75 11,0.75 Z" id="形状结合"></path>
                                <path d="M11,13.5833333 C12.5566821,13.5833333 13.5486252,13.7678977 14.15608,14.1323706 C14.738577,14.4818688 14.8333333,15.0183935 14.8333333,15.5833333 C14.8333333,16.2251523 14.3127473,16.9749813 13.5926603,17.5510509 C12.9053218,18.1009217 11.9979512,18.5 11,18.5 C10.0020488,18.5 9.09467821,18.1009217 8.40733967,17.5510509 C7.6872527,16.9749813 7.16666667,16.2251523 7.16666667,15.5833333 C7.16666667,15.0183935 7.26142297,14.4818688 7.84391997,14.1323706 C8.45137476,13.7678977 9.44331789,13.5833333 11,13.5833333 Z" id="椭圆形"></path>
                            </g>
                        </g>
                    </g>
                </g>
            </g>
        </g>
    </g>
</svg>