<?xml version="1.0" encoding="UTF-8"?>
<svg width="24px" height="23.4746094px" viewBox="0 0 24 23.4746094" version="1.1" xmlns="http://www.w3.org/2000/svg" xmlns:xlink="http://www.w3.org/1999/xlink">
    <title>Home@2x</title>
    <defs>
        <rect id="path-1" x="0" y="0" width="26" height="26"></rect>
        <linearGradient x1="50%" y1="0%" x2="50%" y2="99.8033217%" id="linearGradient-3">
            <stop stop-color="#84EA9B" offset="0%"></stop>
            <stop stop-color="#03DA9F" offset="100%"></stop>
        </linearGradient>
    </defs>
    <g id="页面-1" stroke="none" stroke-width="1" fill="none" fill-rule="evenodd">
        <g id="首页" transform="translate(-51, -751.5254)">
            <g id="底部导航" transform="translate(0, 736)">
                <g id="Home" transform="translate(50, 14)">
                    <mask id="mask-2" fill="white">
                        <use xlink:href="#path-1"></use>
                    </mask>
                    <g id="蒙版"></g>
                    <g id="编组-13" mask="url(#mask-2)">
                        <g transform="translate(1, 1)">
                            <rect id="矩形" fill="#BCEAD9" x="16" y="0.525390625" width="6" height="10" rx="2"></rect>
                            <path d="M1.44484772,5.87607533 L6.58911834,1.60499081 C7.77095737,0.623756594 9.41030626,0.405982388 10.8073341,1.04463505 L21.6630635,6.00734244 C23.0867953,6.65820283 24,8.07977986 24,9.64522916 L24,20 C24,22.209139 22.209139,24 20,24 L4,24 C1.790861,24 -1.19699688e-15,22.209139 0,20 L0,8.95360629 C1.63066535e-15,7.76394503 0.529542879,6.63601675 1.44484772,5.87607533 Z" id="矩形" fill="url(#linearGradient-3)"></path>
                            <rect id="矩形备份-6" fill="#FFFFFF" x="5" y="11.5253906" width="6" height="8" rx="2"></rect>
                        </g>
                    </g>
                </g>
            </g>
        </g>
    </g>
</svg>