<?xml version="1.0" encoding="UTF-8"?>
<svg width="24px" height="23.4746094px" viewBox="0 0 24 23.4746094" version="1.1" xmlns="http://www.w3.org/2000/svg" xmlns:xlink="http://www.w3.org/1999/xlink">
    <title>Home_default@2x</title>
    <defs>
        <rect id="path-1" x="0" y="0" width="26" height="26"></rect>
    </defs>
    <g id="页面-1" stroke="none" stroke-width="1" fill="none" fill-rule="evenodd">
        <g id="加载状态" transform="translate(-49, -619.5254)">
            <g id="底部导航-默认" transform="translate(-2, 604)">
                <g id="Home_default" transform="translate(50, 14)">
                    <mask id="mask-2" fill="white">
                        <use xlink:href="#path-1"></use>
                    </mask>
                    <g id="蒙版"></g>
                    <g id="编组-13" mask="url(#mask-2)" stroke="#333333" stroke-width="1.5">
                        <g transform="translate(1, 1.5254)">
                            <path d="M20,0.75 C20.345178,0.75 20.657678,0.889911016 20.8838835,1.11611652 C21.110089,1.34232203 21.25,1.65482203 21.25,2.00017683 L21.2509714,6.12025917 C21.9247807,6.40137465 22.4663278,6.89144131 22.8149651,7.49548595 C23.0945386,7.97987168 23.25,8.53761063 23.25,9.11983853 L23.25,19.4746094 C23.25,20.3720721 22.8862314,21.1845721 22.298097,21.7727064 C21.7099627,22.3608407 20.8974627,22.7246094 20,22.7246094 L4,22.7246094 C3.10253728,22.7246094 2.29003728,22.3608407 1.70190296,21.7727064 C1.11376864,21.1845721 0.75,20.3720721 0.75,19.4746094 L0.75,8.42821566 C0.75,7.46161589 1.18025359,6.54517416 1.92393877,5.92772176 L7.06820939,1.65663724 C7.5483315,1.25801084 8.12138529,1.01446226 8.71629421,0.935433431 C9.31120312,0.856404606 9.92796715,0.941895543 10.4955181,1.201352 L16.75,4.06050214 L16.75,2 C16.75,1.65482203 16.889911,1.34232203 17.1161165,1.11611652 C17.342322,0.889911016 17.654822,0.75 18,0.75 Z" id="形状结合"></path>
                            <rect id="矩形备份-6" x="5" y="11" width="6" height="8" rx="2"></rect>
                        </g>
                    </g>
                </g>
            </g>
        </g>
    </g>
</svg>