<?xml version="1.0" encoding="UTF-8"?>
<svg width="26px" height="24px" viewBox="0 0 26 24" version="1.1" xmlns="http://www.w3.org/2000/svg" xmlns:xlink="http://www.w3.org/1999/xlink">
    <title>Treasure hunt_default@2x</title>
    <defs>
        <rect id="path-1" x="0" y="0" width="26" height="26"></rect>
    </defs>
    <g id="页面-1" stroke="none" stroke-width="1" fill="none" fill-rule="evenodd">
        <g id="首页" transform="translate(-175, -751)">
            <g id="底部导航" transform="translate(0, 736)">
                <g id="Treasure-hunt" transform="translate(125, 0)">
                    <g id="Treasure-hunt_default" transform="translate(50, 14)">
                        <mask id="mask-2" fill="white">
                            <use xlink:href="#path-1"></use>
                        </mask>
                        <g id="蒙版"></g>
                        <g id="编组-15" mask="url(#mask-2)" stroke="#333333" stroke-width="1.5">
                            <g transform="translate(0, 1)">
                                <path d="M13,0.75 C15.8304593,0.75 18.3929593,1.89727033 20.2478445,3.75215549 C22.1027297,5.60704066 23.25,8.16954066 23.25,11 C23.25,13.3115722 22.4851853,15.4445746 21.1938457,17.1591184 L25.0529785,17.1586914 C25.25,17.6778491 25.080062,17.9760914 24.8029323,18.1403195 L16.9467333,22.7959336 C16.4451652,23.0931648 15.8728761,23.25 15.2898521,23.25 L2,23.25 C1.65482203,23.25 1.34232203,23.110089 1.11611652,22.8838835 C0.889911016,22.657678 0.75,22.345178 0.75,22 L0.75,16 C0.75,15.654822 0.889911016,15.342322 1.11611652,15.1161165 C1.34232203,14.889911 1.65482203,14.75 2,14.75 C2.20596068,14.75 2.40028714,14.7998121 2.5716048,14.8879265 C2.64319032,14.6303954 2.70210261,14.372483 2.74152795,14.1124113 C2.84440179,13.4337977 2.81620049,12.729902 2.78189859,12.0064344 C2.76619242,11.6751728 2.75,11.3394497 2.75,11 C2.75,8.16954066 3.89727033,5.60704066 5.75215549,3.75215549 C7.60704066,1.89727033 10.1695407,0.75 13,0.75 Z" id="形状结合"></path>
                                <path d="M10.3831365,8 L15.1168635,8 C15.422077,8 15.7105803,8.13938649 15.9002725,8.37849347 L16.9967486,9.76060158 C17.2901822,10.1304747 17.2849452,10.6551847 16.9841875,11.0191274 L13.5208479,15.2100651 C13.1690319,15.6357927 12.5387083,15.6957098 12.1129808,15.3438938 C12.0642406,15.3036155 12.0194304,15.2588053 11.9791521,15.2100651 L8.51581252,11.0191274 C8.21505481,10.6551847 8.20981778,10.1304747 8.50325143,9.76060158 L9.59972751,8.37849347 C9.78941968,8.13938649 10.077923,8 10.3831365,8 Z" id="路径" stroke-linecap="round" stroke-linejoin="round"></path>
                            </g>
                        </g>
                    </g>
                </g>
            </g>
        </g>
    </g>
</svg>